<svg width="28" height="21" viewBox="0 0 28 21" fill="none" xmlns="http://www.w3.org/2000/svg">
<g filter="url(#filter0_f_1134_511)">
<mask id="path-1-inside-1_1134_511" fill="white">
<path d="M19.1992 6.71429L24.8277 10.2857L19.1992 14L13.8452 18L8.49124 14L3 10.2857L8.49124 6.71429L13.8452 3L19.1992 6.71429Z"/>
</mask>
<path d="M24.8277 10.2857L41.3513 35.3251L80.0436 9.79185L40.9007 -15.0452L24.8277 10.2857ZM19.1992 6.71429L2.0989 31.3635L2.60549 31.7149L3.12608 32.0452L19.1992 6.71429ZM13.8452 3L30.9455 -21.6492L13.8452 -33.5124L-3.25506 -21.6492L13.8452 3ZM8.49124 6.71429L24.8477 31.8631L25.2233 31.6189L25.5915 31.3635L8.49124 6.71429ZM3 10.2857L-13.3565 -14.8631L-51.2703 9.7955L-13.8081 35.135L3 10.2857ZM8.49124 14L26.4468 -10.0333L25.8826 -10.4548L25.2994 -10.8493L8.49124 14ZM13.8452 18L-4.11033 42.0333L13.8452 55.4481L31.8007 42.0333L13.8452 18ZM19.1992 14L2.67556 -11.0394L1.94491 -10.5572L1.24363 -10.0333L19.1992 14ZM40.9007 -15.0452L35.2722 -18.6166L3.12608 32.0452L8.7546 35.6166L40.9007 -15.0452ZM36.2994 -17.9349L30.9455 -21.6492L-3.25506 27.6492L2.0989 31.3635L36.2994 -17.9349ZM-3.25506 -21.6492L-8.60901 -17.9349L25.5915 31.3635L30.9455 27.6492L-3.25506 -21.6492ZM-13.8081 35.135L-8.31688 38.8493L25.2994 -10.8493L19.8081 -14.5636L-13.8081 35.135ZM-9.46429 38.0333L-4.11033 42.0333L31.8007 -6.03329L26.4468 -10.0333L-9.46429 38.0333ZM31.8007 42.0333L37.1547 38.0333L1.24363 -10.0333L-4.11033 -6.03329L31.8007 42.0333ZM35.7228 39.0394L41.3513 35.3251L8.30408 -14.7537L2.67556 -11.0394L35.7228 39.0394ZM-7.86525 -18.4346L-13.3565 -14.8631L19.3565 35.4346L24.8477 31.8631L-7.86525 -18.4346Z" fill="url(#paint0_diamond_1134_511)" fill-opacity="0.8" mask="url(#path-1-inside-1_1134_511)"/>
</g>
<defs>
<filter id="filter0_f_1134_511" x="0" y="0" width="27.8281" height="21" filterUnits="userSpaceOnUse" color-interpolation-filters="sRGB">
<feFlood flood-opacity="0" result="BackgroundImageFix"/>
<feBlend mode="normal" in="SourceGraphic" in2="BackgroundImageFix" result="shape"/>
<feGaussianBlur stdDeviation="1.5" result="effect1_foregroundBlur_1134_511"/>
</filter>
<radialGradient id="paint0_diamond_1134_511" cx="0" cy="0" r="1" gradientUnits="userSpaceOnUse" gradientTransform="translate(14.257 10.2857) rotate(90) scale(10 16.3364)">
<stop stop-color="#66B3B4"/>
<stop offset="1" stop-color="white" stop-opacity="0"/>
</radialGradient>
</defs>
</svg>
